<svg xmlns="http://www.w3.org/2000/svg" viewBox="0 0 160 36" role="img" aria-labelledby="logo-pyside-title">
  <title id="logo-pyside-title">PySide6 logo</title>
  <defs>
    <linearGradient id="pysideGradient" x1="0" y1="0" x2="1" y2="1">
      <stop offset="0" stop-color="#16a694" />
      <stop offset="1" stop-color="#0a766c" />
    </linearGradient>
  </defs>
  <rect x="0" y="0" width="160" height="36" rx="12" fill="url(#pysideGradient)" />
  <g transform="translate(20,9)" fill="#ffffff">
    <path d="M0 17V0h11.5c5.1 0 8.1 2.8 8.1 7 0 4.3-3.1 7-8.1 7H5.8V17H0zm5.8-9.8h4.9c2.1 0 3.2-0.9 3.2-2.2 0-1.4-1.1-2.2-3.2-2.2H5.8v4.4z" />
    <path d="M23.6 17h-5.5V0h5.5v6.3l5.6-6.3h6.5l-6.4 6.9 6.9 10.1h-6.3l-4.1-6.4-2.2 2.3V17z" />
    <path d="M45.1 17h-5.5V0h5.5v17z" />
    <path d="M51.1 0h5.6l5.1 10.9L66.9 0h5.2l-8.6 17h-4.2L51.1 0z" />
    <path d="M87.2 12.6c0 2.9-2.6 4.7-7.4 4.7h-8.5V0h7.8c4.7 0 7.2 1.8 7.2 4.6 0 1.7-1 3.1-2.4 3.9 2 0.6 3.3 2.2 3.3 4.1zm-12.1-8.5v3.4h2.8c1.4 0 2.1-0.5 2.1-1.7 0-1.1-0.7-1.7-2-1.7h-2.9zm6.6 8.1c0-1.2-0.9-1.8-2.5-1.8h-4.1v3.6h4.1c1.7 0 2.5-0.6 2.5-1.8z" />
  </g>
</svg>
