<svg xmlns="http://www.w3.org/2000/svg" viewBox="0 0 120 40" aria-hidden="true">
  <rect width="120" height="40" rx="8" fill="#f3f4f6"/>
  <circle cx="28" cy="20" r="11" fill="#111827"/>
  <path fill="#fff" d="M27.9 15.2c-2.3 0-4.3 1.9-4.3 4.3 0 1.9 1.2 3.5 2.8 4 0 .1-.1.3-.1.6v1.9c0 .3.3.6.6.6s.6-.3.6-.6v-1.6h1v1.6c0 .3.3.6.6.6s.6-.3.6-.6v-1.9c0-.3-.1-.5-.1-.6 1.6-.5 2.8-2.1 2.8-4 0-2.4-1.9-4.3-4.3-4.3z"/>
  <text x="52" y="24" font-family="'Segoe UI',sans-serif" font-size="16" fill="#1f2937">GitHub</text>
</svg>
